<?xml version="1.0" encoding="iso-8859-1"?>
<!-- Generator: Adobe Illustrator 19.0.0, SVG Export Plug-In . SVG Version: 6.00 Build 0)  -->
<svg version="1.1" id="Layer_1" xmlns="http://www.w3.org/2000/svg" xmlns:xlink="http://www.w3.org/1999/xlink" x="0px" y="0px"
	 viewBox="0 0 511.998 511.998" style="enable-background:new 0 0 511.998 511.998;" xml:space="preserve">
<path style="fill:#87868A;" d="M180.113,113.117c-16.632-9.418-35.578-14.395-54.788-14.395c-31.803,0-65.864,4.085-99.457,33.723
	l-12.22,10.781l14.341,15.028C15.463,170.096,0,190.846,0,221.115V240.5l19.375-4.151c3.679,25.047,14.804,45.811,32.718,60.739
	c18.803,15.669,44.81,24.297,73.23,24.297L180.113,113.117z"/>
<path style="fill:#D37B93;" d="M164.669,140.391c-11.931-6.756-25.536-10.327-39.345-10.327c-20.962,0-43.105,1.408-65.679,15.963
	l17.112,17.932l-17.811,9.675c-0.785,0.454-16.041,9.486-23.529,27.224l13.95-2.988v19.385c0,17.076,5.478,72.787,75.957,72.787
	L164.669,140.391z"/>
<path style="fill:#646467;" d="M331.887,113.117c16.632-9.418,35.578-14.395,54.788-14.395c31.803,0,65.864,4.085,99.457,33.723
	l12.22,10.781l-14.341,15.028c12.524,11.842,27.986,32.591,27.986,62.86V240.5l-19.375-4.151
	c-3.679,25.047-14.805,45.811-32.718,60.739c-18.803,15.669-44.81,24.297-73.23,24.297L331.887,113.117z"/>
<path style="fill:#9D5B6E;" d="M347.33,140.391c11.931-6.756,25.536-10.327,39.345-10.327c20.962,0,43.105,1.408,65.679,15.963
	l-17.112,17.932l17.811,9.675c0.785,0.454,16.042,9.486,23.529,27.224l-13.95-2.988v19.385c0,17.076-5.478,72.787-75.957,72.787
	L347.33,140.391z"/>
<path style="fill:#87868A;" d="M255.97,420.162c-60.532,0-101.904-14.081-126.479-43.047
	c-36.384-42.886-28.946-109.718-17.303-180.217c5.462-33.051,19.716-58.779,42.369-76.471
	c24.289-18.97,58.401-28.589,101.385-28.589c0.017,0,0.036,0,0.056,0c42.984,0,77.092,9.618,101.382,28.589
	c22.653,17.693,36.907,43.421,42.368,76.47c11.645,70.5,19.084,137.332-17.302,180.218
	C357.875,406.081,316.502,420.162,255.97,420.162z"/>
<path style="fill:#646467;" d="M255.97,420.162c0-115.948-0.026-270.131-0.026-328.325c0.017,0,0.036,0,0.056,0
	c42.984,0,77.092,9.618,101.382,28.589c22.653,17.693,36.907,43.421,42.368,76.47c11.645,70.5,19.084,137.332-17.301,180.218
	C357.875,406.081,316.502,420.162,255.97,420.162z"/>
<path style="fill:#5B5B5F;" d="M255.97,351.56c-16.637,0-29.143-4.676-37.168-13.9c-13.101-15.055-11.186-37.806-7.844-61.764
	c3.462-24.803,19.445-38.462,45.005-38.462c0.004-0.001,0.012-0.001,0.018,0c25.559,0,41.539,13.657,45.003,38.46
	c3.342,23.96,5.257,46.711-7.844,61.766C285.113,346.883,272.607,351.56,255.97,351.56z"/>
<path style="fill:#434347;" d="M255.97,351.56c0-29.477-0.007-76.879-0.007-114.126c0.004-0.001,0.012-0.001,0.018,0
	c25.559,0,41.539,13.657,45.003,38.46c3.342,23.96,5.257,46.711-7.844,61.766C285.113,346.883,272.607,351.56,255.97,351.56z"/>
<g>
	<path style="fill:#333333;" d="M176.598,210.053c0-9.302,7.457-16.833,16.618-16.833c9.174,0,16.629,7.533,16.629,16.833
		c0,9.3-7.454,16.839-16.629,16.839C184.054,226.891,176.598,219.352,176.598,210.053z"/>
	<path style="fill:#333333;" d="M335.343,210.053c0-9.37-7.504-16.965-16.744-16.965c-9.252,0-16.755,7.596-16.755,16.965
		c0,9.37,7.505,16.965,16.755,16.965C327.838,227.018,335.343,219.422,335.343,210.053z"/>
</g>
<g>
</g>
<g>
</g>
<g>
</g>
<g>
</g>
<g>
</g>
<g>
</g>
<g>
</g>
<g>
</g>
<g>
</g>
<g>
</g>
<g>
</g>
<g>
</g>
<g>
</g>
<g>
</g>
<g>
</g>
</svg>
